<mxfile host="app.diagrams.net" modified="2024-02-27T04:15:54.508Z" agent="Mozilla/5.0 (Macintosh; Intel Mac OS X 10_15_7) AppleWebKit/537.36 (KHTML, like Gecko) Chrome/120.0.0.0 Safari/537.36" version="23.1.0" etag="txpAAfA0b3LlHORhqRp-" type="github">
  <diagram name="第 1 页" id="9B6i5pc0i6AFC_Ok4Ifa">
    <mxGraphModel>
      <root>
        <mxCell id="0" />
        <mxCell id="1" parent="0" />
      </root>
    </mxGraphModel>
  </diagram>
</mxfile>
